<svg width="88" height="41" viewBox="0 0 88 41" fill="none" xmlns="http://www.w3.org/2000/svg">
<path d="M19.152 25.572V28.74H15.808V36H12.024L12.024 28.74H0.496L0.496 25.88L8.372 6.036L11.716 7.312L4.544 25.572H12.068L12.464 17.564L15.808 17.564V25.572H19.152ZM24.9325 30.984C25.7538 30.984 26.4138 31.2627 26.9125 31.82C27.4405 32.348 27.7045 32.9933 27.7045 33.756C27.7045 34.5187 27.4405 35.1787 26.9125 35.736C26.4138 36.2933 25.7538 36.572 24.9325 36.572C24.1405 36.572 23.4805 36.2933 22.9525 35.736C22.4538 35.1787 22.2045 34.5187 22.2045 33.756C22.2045 32.9933 22.4538 32.348 22.9525 31.82C23.4805 31.2627 24.1405 30.984 24.9325 30.984ZM46.9624 9.644L36.6664 9.644V18.444C38.0451 17.6227 39.4824 17.212 40.9784 17.212C43.2371 17.212 45.0557 18.0333 46.4344 19.676C47.8131 21.3187 48.5024 23.592 48.5024 26.496C48.5024 28.4613 48.1064 30.2067 47.3144 31.732C46.5517 33.2573 45.4664 34.4453 44.0584 35.296C42.6504 36.1467 41.0077 36.572 39.1304 36.572C37.4584 36.572 35.9771 36.2493 34.6864 35.604C33.4251 34.9587 32.2224 34.0053 31.0784 32.744L33.4104 30.632C34.2611 31.5413 35.1264 32.2307 36.0064 32.7C36.8864 33.14 37.8984 33.36 39.0424 33.36C40.7437 33.36 42.0637 32.7733 43.0024 31.6C43.9411 30.3973 44.4104 28.6813 44.4104 26.452C44.4104 22.2573 42.8264 20.16 39.6584 20.16C38.9544 20.16 38.3091 20.2627 37.7224 20.468C37.1357 20.644 36.4757 20.9373 35.7424 21.348H32.8824V6.564L47.4904 6.564L46.9624 9.644ZM62.6903 0.491998L66.0343 1.24L56.7063 40.532L53.3623 39.784L62.6903 0.491998ZM86.021 9.644H75.725V18.444C77.1037 17.6227 78.541 17.212 80.037 17.212C82.2957 17.212 84.1143 18.0333 85.493 19.676C86.8717 21.3187 87.561 23.592 87.561 26.496C87.561 28.4613 87.165 30.2067 86.373 31.732C85.6103 33.2573 84.525 34.4453 83.117 35.296C81.709 36.1467 80.0663 36.572 78.189 36.572C76.517 36.572 75.0357 36.2493 73.745 35.604C72.4837 34.9587 71.281 34.0053 70.137 32.744L72.469 30.632C73.3197 31.5413 74.185 32.2307 75.065 32.7C75.945 33.14 76.957 33.36 78.101 33.36C79.8023 33.36 81.1223 32.7733 82.061 31.6C82.9997 30.3973 83.469 28.6813 83.469 26.452C83.469 22.2573 81.885 20.16 78.717 20.16C78.013 20.16 77.3677 20.2627 76.781 20.468C76.1943 20.644 75.5343 20.9373 74.801 21.348H71.941V6.564H86.549L86.021 9.644Z" fill="#D3D3D3"/>
<path d="M19.152 25.572H20.152V24.572H19.152V25.572ZM19.152 28.74V29.74H20.152V28.74H19.152ZM15.808 28.74V27.74H14.808V28.74H15.808ZM15.808 36V37H16.808V36H15.808ZM12.024 36H11.024V37H12.024V36ZM12.024 28.74H13.024V27.74H12.024V28.74ZM0.496 28.74H-0.504V29.74H0.496V28.74ZM0.496 25.88L-0.433468 25.5111L-0.504 25.6888L-0.504 25.88H0.496ZM8.372 6.036L8.72851 5.1017L7.80656 4.74991L7.44253 5.6671L8.372 6.036ZM11.716 7.312L12.6468 7.67758L13.0159 6.7377L12.0725 6.37771L11.716 7.312ZM4.544 25.572L3.61322 25.2064L3.07686 26.572H4.544V25.572ZM12.068 25.572V26.572H13.0198L13.0668 25.6214L12.068 25.572ZM12.464 17.564V16.564H11.5122L11.4652 17.5146L12.464 17.564ZM15.808 17.564H16.808V16.564H15.808V17.564ZM15.808 25.572L14.808 25.572V26.572L15.808 26.572V25.572ZM18.152 25.572V28.74H20.152V25.572H18.152ZM19.152 27.74H15.808V29.74H19.152V27.74ZM14.808 28.74L14.808 36H16.808V28.74H14.808ZM15.808 35H12.024L12.024 37H15.808V35ZM13.024 36L13.024 28.74H11.024L11.024 36H13.024ZM12.024 27.74H0.496L0.496 29.74H12.024V27.74ZM1.496 28.74V25.88H-0.504L-0.504 28.74H1.496ZM1.42547 26.2489L9.30147 6.4049L7.44253 5.6671L-0.433468 25.5111L1.42547 26.2489ZM8.01549 6.97029L11.3595 8.24629L12.0725 6.37771L8.72851 5.1017L8.01549 6.97029ZM10.7852 6.94642L3.61322 25.2064L5.47478 25.9376L12.6468 7.67758L10.7852 6.94642ZM4.544 26.572H12.068V24.572H4.544V26.572ZM13.0668 25.6214L13.4628 17.6134L11.4652 17.5146L11.0692 25.5226L13.0668 25.6214ZM12.464 18.564L15.808 18.564V16.564L12.464 16.564V18.564ZM14.808 17.564L14.808 25.572L16.808 25.572V17.564L14.808 17.564ZM15.808 26.572H19.152V24.572H15.808V26.572ZM26.9125 31.82L26.1673 32.4868L26.1858 32.5075L26.2054 32.5271L26.9125 31.82ZM26.9125 35.736L26.1865 35.0483L26.1768 35.0586L26.1673 35.0692L26.9125 35.736ZM22.9525 35.736L22.2073 36.4028L22.2168 36.4134L22.2265 36.4237L22.9525 35.736ZM22.9525 31.82L22.2265 31.1323L22.2255 31.1334L22.9525 31.82ZM24.9325 31.984C25.5006 31.984 25.8782 32.1637 26.1673 32.4868L27.6577 31.1532C26.9495 30.3616 26.007 29.984 24.9325 29.984V31.984ZM26.2054 32.5271C26.5414 32.8631 26.7045 33.2522 26.7045 33.756H28.7045C28.7045 32.7345 28.3396 31.8329 27.6196 31.1129L26.2054 32.5271ZM26.7045 33.756C26.7045 34.2609 26.5399 34.6753 26.1865 35.0483L27.6385 36.4237C28.3411 35.682 28.7045 34.7764 28.7045 33.756H26.7045ZM26.1673 35.0692C25.8782 35.3923 25.5006 35.572 24.9325 35.572V37.572C26.007 37.572 26.9495 37.1944 27.6577 36.4028L26.1673 35.0692ZM24.9325 35.572C24.4053 35.572 24.011 35.3993 23.6785 35.0483L22.2265 36.4237C22.95 37.1874 23.8757 37.572 24.9325 37.572V35.572ZM23.6977 35.0692C23.3667 34.6992 23.2045 34.278 23.2045 33.756H21.2045C21.2045 34.7593 21.541 35.6581 22.2073 36.4028L23.6977 35.0692ZM23.2045 33.756C23.2045 33.2345 23.3656 32.839 23.6795 32.5066L22.2255 31.1334C21.542 31.857 21.2045 32.7521 21.2045 33.756H23.2045ZM23.6785 32.5077C24.011 32.1567 24.4053 31.984 24.9325 31.984V29.984C23.8757 29.984 22.95 30.3686 22.2265 31.1323L23.6785 32.5077ZM46.9624 9.644V10.644H47.8056L47.948 9.81296L46.9624 9.644ZM36.6664 9.644V8.644H35.6664V9.644H36.6664ZM36.6664 18.444H35.6664V20.2038L37.1782 19.3031L36.6664 18.444ZM46.4344 19.676L45.6684 20.3189L46.4344 19.676ZM47.3144 31.732L46.4269 31.2712L46.4234 31.278L46.42 31.2848L47.3144 31.732ZM34.6864 35.604L34.2309 36.4943L34.2392 36.4984L34.6864 35.604ZM31.0784 32.744L30.4071 32.0028L29.6654 32.6746L30.3377 33.4158L31.0784 32.744ZM33.4104 30.632L34.1407 29.9488L33.4685 29.2303L32.7391 29.8908L33.4104 30.632ZM36.0064 32.7L35.5358 33.5824L35.5474 33.5885L35.5592 33.5944L36.0064 32.7ZM43.0024 31.6L43.7833 32.2247L43.7907 32.2153L43.0024 31.6ZM37.7224 20.468L38.0098 21.4258L38.0314 21.4193L38.0528 21.4119L37.7224 20.468ZM35.7424 21.348V22.348H36.0033L36.231 22.2205L35.7424 21.348ZM32.8824 21.348H31.8824V22.348H32.8824V21.348ZM32.8824 6.564V5.564H31.8824V6.564H32.8824ZM47.4904 6.564L48.476 6.73296L48.6764 5.564H47.4904V6.564ZM46.9624 8.644L36.6664 8.644V10.644L46.9624 10.644V8.644ZM35.6664 9.644V18.444H37.6664V9.644H35.6664ZM37.1782 19.3031C38.4138 18.567 39.6757 18.212 40.9784 18.212V16.212C39.2891 16.212 37.6764 16.6783 36.1546 17.5849L37.1782 19.3031ZM40.9784 18.212C42.9595 18.212 44.4911 18.916 45.6684 20.3189L47.2004 19.0331C45.6204 17.1506 43.5146 16.212 40.9784 16.212V18.212ZM45.6684 20.3189C46.8498 21.7265 47.5024 23.7437 47.5024 26.496H49.5024C49.5024 23.4403 48.7763 20.9109 47.2004 19.0331L45.6684 20.3189ZM47.5024 26.496C47.5024 28.3241 47.135 29.9075 46.4269 31.2712L48.2019 32.1928C49.0778 30.5059 49.5024 28.5986 49.5024 26.496H47.5024ZM46.42 31.2848C45.7386 32.6475 44.7813 33.6909 43.5413 34.4401L44.5755 36.1519C46.1516 35.1997 47.3648 33.8672 48.2088 32.1792L46.42 31.2848ZM43.5413 34.4401C42.3104 35.1838 40.8517 35.572 39.1304 35.572V37.572C41.1638 37.572 42.9905 37.1096 44.5755 36.1519L43.5413 34.4401ZM39.1304 35.572C37.589 35.572 36.2649 35.2752 35.1336 34.7096L34.2392 36.4984C35.6892 37.2234 37.3278 37.572 39.1304 37.572V35.572ZM35.1419 34.7138C34.0073 34.1333 32.898 33.2617 31.8191 32.0722L30.3377 33.4158C31.5469 34.749 32.8428 35.7841 34.2309 36.4942L35.1419 34.7138ZM31.7497 33.4852L34.0817 31.3732L32.7391 29.8908L30.4071 32.0028L31.7497 33.4852ZM32.6801 31.3152C33.588 32.2856 34.5383 33.0503 35.5358 33.5824L36.477 31.8176C35.7146 31.411 34.9342 30.7971 34.1407 29.9488L32.6801 31.3152ZM35.5592 33.5944C36.599 34.1143 37.7684 34.36 39.0424 34.36V32.36C38.0284 32.36 37.1738 32.1657 36.4536 31.8056L35.5592 33.5944ZM39.0424 34.36C41.0021 34.36 42.6282 33.6686 43.7833 32.2247L42.2215 30.9753C41.4993 31.8781 40.4854 32.36 39.0424 32.36V34.36ZM43.7907 32.2153C44.9172 30.772 45.4104 28.8051 45.4104 26.452H43.4104C43.4104 28.5576 42.965 30.0226 42.2141 30.9847L43.7907 32.2153ZM45.4104 26.452C45.4104 24.2574 45.0011 22.4288 44.0204 21.1303C42.9998 19.7789 41.4838 19.16 39.6584 19.16V21.16C41.001 21.16 41.861 21.5897 42.4244 22.3357C43.0278 23.1345 43.4104 24.4519 43.4104 26.452H45.4104ZM39.6584 19.16C38.8567 19.16 38.098 19.2771 37.3921 19.5241L38.0528 21.4119C38.5202 21.2483 39.0522 21.16 39.6584 21.16V19.16ZM37.4351 19.5102C36.758 19.7133 36.0291 20.0413 35.2538 20.4755L36.231 22.2205C36.9224 21.8334 37.5135 21.5747 38.0098 21.4258L37.4351 19.5102ZM35.7424 20.348H32.8824V22.348H35.7424V20.348ZM33.8824 21.348V6.564H31.8824V21.348H33.8824ZM32.8824 7.564L47.4904 7.564V5.564L32.8824 5.564V7.564ZM46.5048 6.39503L45.9768 9.47503L47.948 9.81296L48.476 6.73296L46.5048 6.39503ZM62.6903 0.491998L62.9086 -0.483886L61.9454 -0.699351L61.7174 0.261016L62.6903 0.491998ZM66.0343 1.24L67.0073 1.47098L67.2413 0.485267L66.2526 0.264115L66.0343 1.24ZM56.7063 40.532L56.4881 41.5079L57.4513 41.7234L57.6793 40.763L56.7063 40.532ZM53.3623 39.784L52.3894 39.553L52.1554 40.5387L53.1441 40.7599L53.3623 39.784ZM62.4721 1.46788L65.8161 2.21588L66.2526 0.264115L62.9086 -0.483886L62.4721 1.46788ZM65.0614 1.00902L55.7334 40.301L57.6793 40.763L67.0073 1.47098L65.0614 1.00902ZM56.9246 39.5561L53.5806 38.8081L53.1441 40.7599L56.4881 41.5079L56.9246 39.5561ZM54.3353 40.015L63.6633 0.72298L61.7174 0.261016L52.3894 39.553L54.3353 40.015ZM86.021 9.644V10.644H86.8642L87.0066 9.81296L86.021 9.644ZM75.725 9.644V8.644H74.725V9.644H75.725ZM75.725 18.444H74.725V20.2038L76.2368 19.3031L75.725 18.444ZM85.493 19.676L84.727 20.3189L85.493 19.676ZM86.373 31.732L85.4855 31.2712L85.482 31.278L85.4786 31.2848L86.373 31.732ZM73.745 35.604L73.2895 36.4943L73.2978 36.4984L73.745 35.604ZM70.137 32.744L69.4657 32.0028L68.724 32.6746L69.3963 33.4158L70.137 32.744ZM72.469 30.632L73.1993 29.9488L72.5271 29.2303L71.7977 29.8908L72.469 30.632ZM75.065 32.7L74.5944 33.5824L74.606 33.5885L74.6178 33.5944L75.065 32.7ZM82.061 31.6L82.8419 32.2247L82.8493 32.2153L82.061 31.6ZM76.781 20.468L77.0684 21.4258L77.09 21.4193L77.1114 21.4119L76.781 20.468ZM74.801 21.348V22.348H75.0619L75.2896 22.2205L74.801 21.348ZM71.941 21.348H70.941V22.348H71.941V21.348ZM71.941 6.564V5.564L70.941 5.564V6.564L71.941 6.564ZM86.549 6.564L87.5346 6.73296L87.735 5.564L86.549 5.564V6.564ZM86.021 8.644H75.725V10.644H86.021V8.644ZM74.725 9.644V18.444H76.725V9.644H74.725ZM76.2368 19.3031C77.4724 18.567 78.7343 18.212 80.037 18.212V16.212C78.3477 16.212 76.735 16.6783 75.2132 17.5849L76.2368 19.3031ZM80.037 18.212C82.0181 18.212 83.5496 18.916 84.727 20.3189L86.259 19.0331C84.679 17.1506 82.5732 16.212 80.037 16.212V18.212ZM84.727 20.3189C85.9084 21.7265 86.561 23.7437 86.561 26.496H88.561C88.561 23.4403 87.8349 20.9109 86.259 19.0331L84.727 20.3189ZM86.561 26.496C86.561 28.3241 86.1936 29.9075 85.4855 31.2712L87.2605 32.1928C88.1364 30.5059 88.561 28.5986 88.561 26.496H86.561ZM85.4786 31.2848C84.7972 32.6475 83.8399 33.6909 82.5999 34.4401L83.6341 36.1519C85.2102 35.1997 86.4234 33.8672 87.2674 32.1792L85.4786 31.2848ZM82.5999 34.4401C81.3689 35.1838 79.9103 35.572 78.189 35.572V37.572C80.2223 37.572 82.049 37.1096 83.6341 36.1519L82.5999 34.4401ZM78.189 35.572C76.6476 35.572 75.3235 35.2752 74.1922 34.7096L73.2978 36.4984C74.7478 37.2234 76.3864 37.572 78.189 37.572V35.572ZM74.2005 34.7138C73.0659 34.1333 71.9565 33.2617 70.8777 32.0722L69.3963 33.4158C70.6055 34.749 71.9014 35.7841 73.2895 36.4942L74.2005 34.7138ZM70.8083 33.4852L73.1403 31.3732L71.7977 29.8908L69.4657 32.0028L70.8083 33.4852ZM71.7387 31.3152C72.6466 32.2856 73.5968 33.0503 74.5944 33.5824L75.5356 31.8176C74.7732 31.411 73.9928 30.7971 73.1993 29.9488L71.7387 31.3152ZM74.6178 33.5944C75.6576 34.1143 76.827 34.36 78.101 34.36V32.36C77.087 32.36 76.2324 32.1657 75.5122 31.8056L74.6178 33.5944ZM78.101 34.36C80.0607 34.36 81.6867 33.6686 82.8419 32.2247L81.2801 30.9753C80.5579 31.8781 79.544 32.36 78.101 32.36V34.36ZM82.8493 32.2153C83.9758 30.772 84.469 28.8051 84.469 26.452H82.469C82.469 28.5576 82.0236 30.0226 81.2727 30.9847L82.8493 32.2153ZM84.469 26.452C84.469 24.2574 84.0597 22.4288 83.079 21.1303C82.0584 19.7789 80.5424 19.16 78.717 19.16V21.16C80.0596 21.16 80.9196 21.5897 81.483 22.3357C82.0863 23.1345 82.469 24.4519 82.469 26.452H84.469ZM78.717 19.16C77.9152 19.16 77.1566 19.2771 76.4507 19.5241L77.1114 21.4119C77.5788 21.2483 78.1108 21.16 78.717 21.16V19.16ZM76.4937 19.5102C75.8166 19.7133 75.0877 20.0413 74.3124 20.4755L75.2896 22.2205C75.9809 21.8334 76.5721 21.5747 77.0684 21.4258L76.4937 19.5102ZM74.801 20.348H71.941V22.348H74.801V20.348ZM72.941 21.348V6.564L70.941 6.564V21.348H72.941ZM71.941 7.564H86.549V5.564H71.941V7.564ZM85.5634 6.39503L85.0354 9.47503L87.0066 9.81296L87.5346 6.73296L85.5634 6.39503Z" fill="black"/>
</svg>
