<?xml version="1.0" encoding="utf-8"?>

<!DOCTYPE svg PUBLIC "-//W3C//DTD SVG 1.1//EN" "http://www.w3.org/Graphics/SVG/1.1/DTD/svg11.dtd">
<svg version="1.1" id="Layer_1" xmlns="http://www.w3.org/2000/svg" xmlns:xlink="http://www.w3.org/1999/xlink" x="0px" y="0px"
	 viewBox="0 0 1382 1662" enable-background="new 0 0 1382 1662" xml:space="preserve">
<g>
	<path d="M527.516,1467.818c0,89.98,73.203,163.182,163.182,163.182c89.916,0,163.184-73.135,163.184-163.182V672.49
		L690.999,509.607L527.516,673.091V1467.818z"/>
	<path d="M863.98,336.626L726.921,473.685l347.587,347.587c51.905,51.908,136.368,51.908,188.274,0l42.5-42.499
		c51.908-51.906,51.908-136.367,0-188.274L917.57,202.788C918.614,255.221,898.335,302.272,863.98,336.626z"/>
	<path d="M828.059,300.705c25.022-25.021,38.804-58.452,38.804-94.137c0-64.66-37.283-92.616-81.301-136.638
		c-51.899-51.899-136.36-51.914-188.275,0L76.719,590.499c-51.908,51.906-51.908,136.367,0,188.274l42.499,42.499
		c51.905,51.908,136.368,51.908,188.274,0L828.059,300.705z"/>
</g>
</svg>
