<svg width="29" height="45" viewBox="0 0 29 45" fill="none" xmlns="http://www.w3.org/2000/svg">
<path d="M28.8168 43.1497C28.5458 42.0626 28.4802 40.8442 27.9281 39.9198C25.975 36.6428 23.855 33.4657 21.7921 30.253C21.5881 29.9348 21.3684 29.6281 21.1573 29.3143C21.3371 29.1973 21.6666 29.2087 21.8207 29.1003C21.9562 29.0047 21.9134 28.7921 22.0318 28.7008C22.203 28.5667 22.6438 28.5582 22.7751 28.4326C22.9092 28.3042 22.7337 28.056 22.8279 27.929C23.3329 27.2699 23.3629 26.5994 23.1517 25.5594C22.397 21.863 21.6723 18.1595 20.9875 14.4488C20.5966 12.3132 20.1273 10.2546 18.1814 9.1903C17.7733 8.81938 17.7006 8.34289 17.8219 8.07326C17.9431 7.80362 18.3654 7.9577 18.8348 8.40994C19.4596 9.01198 19.782 7.16878 20.3769 7.06035C20.6451 7.01185 20.4026 6.61097 20.4026 6.50397C20.4026 6.20581 20.5324 5.89623 20.6708 5.70078C21.0004 5.84915 21.3042 5.96185 21.5853 6.05744C21.7337 6.12306 21.8835 6.19297 22.0133 6.24432C21.9648 6.21151 21.9263 6.1787 21.8835 6.14589C22.5682 6.34133 23.0576 6.35703 23.2074 6.12449C23.437 5.75785 22.7608 4.8876 21.5767 3.8961C21.6509 3.75629 21.7237 3.61791 21.785 3.47953L22.1674 2.87464C22.3428 2.59787 21.494 1.74903 20.2771 0.980081C19.0602 0.21113 17.9289 -0.186898 17.7534 0.0884408L17.1285 1.07994C15.7033 0.425124 14.6062 0.179745 14.3723 0.54924C14.1283 0.935856 14.8859 1.87743 16.1827 2.92885C15.9444 3.43387 15.7618 3.95602 15.7946 4.4482C15.9202 6.41124 14.5848 7.23583 12.7031 6.71083C11.8728 6.47829 10.7786 6.32564 10.0739 6.67659C7.98243 7.71945 6.03366 9.05049 4.00786 10.2289C3.18755 10.7054 3.17899 11.3103 3.31452 12.1648C3.90514 15.9354 6.54011 18.7002 7.90825 21.9001C5.60853 23.8574 3.30881 25.8547 0.954883 27.7878C0.124588 28.4697 -0.107952 29.2101 0.185932 30.2045C1.02193 33.0435 1.79802 35.9024 2.69251 38.7243C2.89366 39.3563 3.46289 40.5475 3.75107 40.673C4.04067 40.8014 4.16051 40.4205 4.30602 40.4134C4.11343 41.3949 4.4658 42.609 3.06058 43.0812C2.91934 43.1283 2.75671 43.5834 2.83232 43.6946C2.97926 43.9115 3.29597 44.1626 3.52709 44.1469C4.49576 44.0841 5.48584 44.0285 5.81682 42.7902C5.95805 42.2652 6.31043 41.7987 6.57435 41.2879C7.01375 41.4206 7.30193 41.6688 7.51022 41.7573C7.7185 41.8457 8.11368 41.8058 8.18358 41.4049C8.21354 41.2252 8.16076 40.0197 7.15641 38.0794C6.10499 36.0465 6.0408 33.2731 4.82389 31.3272C7.34616 29.4498 10.6431 27.5367 11.9656 26.0073C13.5834 28.6466 19.6365 35.3232 23.2701 39.7472C24.2003 40.8813 25.3673 41.8286 26.423 42.8615C26.6755 42.8914 26.6698 43.144 26.6769 43.3979C26.6983 44.3166 26.9893 45.1469 28.0622 44.9772C29.085 44.8245 29.0166 43.9471 28.8168 43.1497ZM8.53596 14.8825C8.2863 15.874 8.48888 16.9782 8.48888 18.0254C6.82401 17.1095 6.16634 13.7384 6.70846 12.4373C8.16076 12.7882 8.91402 13.3803 8.53596 14.8825ZM17.8276 20.4221C16.6691 18.9941 16.846 16.2977 17.8276 15.3177C17.8276 16.9126 17.8276 18.4662 17.8276 20.4221Z" fill="white"/>
</svg>
